<svg id="_2" data-name="2" xmlns="http://www.w3.org/2000/svg" viewBox="0 0 300 300"><defs><style>.cls-1{fill:#2fcdb4;}.cls-2{fill:#4b4b4b;}</style></defs><title>アートボード 1</title><circle class="cls-1" cx="150" cy="150" r="150"/><path class="cls-2" d="M240.06,95.09A13.43,13.43,0,0,0,234.35,89,17.23,17.23,0,0,0,226,87c-5.32,0-11.16,2.13-16.33,6.69-4.31,3.8-8.11,9.3-10.85,16.61V56.39A6.4,6.4,0,0,0,192.39,50H102.72a6.4,6.4,0,0,0-6.39,6.39v52.35l-13.53-5.1a17.8,17.8,0,0,0-24.09,16.67A17.8,17.8,0,0,0,70.25,137l12,4.52a17.32,17.32,0,0,0-2.13,1.23,16.92,16.92,0,0,0-6.3,8,16.67,16.67,0,0,0-1.09,5.94,16.89,16.89,0,0,0,10.94,15.81l.89.33c-.33.19-.65.4-1,.61a16.89,16.89,0,0,0,3.53,29.75l.89.34a11.18,11.18,0,0,0-1,.62,16.86,16.86,0,0,0-4.46,23.45,16.92,16.92,0,0,0,8,6.3l11.53,4.34a16.73,16.73,0,0,0,13.78-.86,67.86,67.86,0,0,0,12.73,6.83A81.19,81.19,0,0,0,157.69,250l2.15,0c11.19,0,20.53-2.13,28.29-6A49.34,49.34,0,0,0,203,232.61c6.17-6.87,10.54-15.28,13.85-24.47a182.12,182.12,0,0,0,7.34-29.29c0-.22.28-1.26.66-3,1.48-6.7,5.22-23.5,8.69-39,1.74-7.76,3.41-15.21,4.71-20.91.65-2.85,1.2-5.27,1.62-7.06.21-.9.38-1.64.52-2.21s.24-1,.26-1a17,17,0,0,0,.69-4.74A13.56,13.56,0,0,0,240.06,95.09ZM72.49,131a11.42,11.42,0,1,1,8.06-21.38l15.78,5.94V140ZM81,162.6A10.44,10.44,0,0,1,79.8,153a10.42,10.42,0,0,1,3.91-5,10.56,10.56,0,0,1,5.9-1.82,10.42,10.42,0,0,1,3.69.68h0l3,1.14,8.51,3.2a10.41,10.41,0,0,1,4,2.66,12.44,12.44,0,0,1,1,1.25,10.5,10.5,0,0,1,1.13,9.61,10.45,10.45,0,0,1-2.13,3.45A10.76,10.76,0,0,1,107,169.7a10.43,10.43,0,0,1-9.59,1.14l-1.12-.43-10.41-3.9A10.52,10.52,0,0,1,81,162.6Zm3.46,30.69a10.55,10.55,0,0,1-1.81-5.9,10.58,10.58,0,0,1,4.59-8.68,10.54,10.54,0,0,1,5.9-1.82,10,10,0,0,1,3.24.53c.16,0,.3.1.45.15l11.53,4.34c.18.07.34.13.51.21a10.4,10.4,0,0,1,4.46,3.69,10.63,10.63,0,0,1,1.82,5.92,10.4,10.4,0,0,1-.67,3.69s0,0,0,0a10.47,10.47,0,0,1-3.9,4.94,10.59,10.59,0,0,1-5.91,1.82,10.48,10.48,0,0,1-3.69-.67l-4.59-1.73L89.4,197.2A10.39,10.39,0,0,1,84.41,193.29ZM118,225.7c0,.14-.09.29-.14.43a10.33,10.33,0,0,1-3.91,5,10.52,10.52,0,0,1-5.9,1.83,10.42,10.42,0,0,1-3.69-.68l-11.53-4.34a10.5,10.5,0,0,1-2.21-18.49,10.57,10.57,0,0,1,5.72-1.82h.18a10.29,10.29,0,0,1,3.7.68l.5.18,11,4.15a10.5,10.5,0,0,1,6.8,9.83A9.86,9.86,0,0,1,118,225.7Zm-7.42-49.76-.92-.35c.33-.19.66-.4,1-.61a16.87,16.87,0,0,0-1.81-29V69.17h77.72V194.82H121.18a16.6,16.6,0,0,0-2.61-12.6A16.84,16.84,0,0,0,110.57,175.94Zm41.46,32a4.48,4.48,0,1,1-4.47-4.47A4.47,4.47,0,0,1,152,207.94Zm82.43-104.08c-.1.35-.22.83-.4,1.57-.64,2.71-2,8.54-3.61,15.81-4.91,21.77-12.56,56.27-12.56,56.27v.13a186.65,186.65,0,0,1-6.08,25.41,84.27,84.27,0,0,1-7.14,16.34,47.2,47.2,0,0,1-16.91,17.55c-7.2,4.19-16.21,6.67-27.9,6.67l-2,0a75.06,75.06,0,0,1-26.81-5.3,62.94,62.94,0,0,1-10-5.14,16.59,16.59,0,0,0,2.76-4.77,15.4,15.4,0,0,0,.75-2.69,13.37,13.37,0,0,0,.27-1.87l67.54.6a6.39,6.39,0,0,0,6.38-6.39V132.78c1.17-4.08,2.66-9.34,4.6-16.14,2.49-8.73,6.37-14.56,10.49-18.2s8.49-5.1,12.1-5.1a10,10,0,0,1,6.55,2.14,6.8,6.8,0,0,1,1.75,2.29,7.38,7.38,0,0,1,.64,3.1A10.66,10.66,0,0,1,234.46,103.86Z"/><path class="cls-2" d="M147.56,165.32a26.1,26.1,0,1,0-26.1-26.1A26.09,26.09,0,0,0,147.56,165.32Zm15.28-10.82a21.78,21.78,0,0,1-8.06,5.09,22.39,22.39,0,0,0,3.64-6.67h5.85C163.82,153.47,163.34,154,162.84,154.5Zm3.08-3.89h-6.75a41.7,41.7,0,0,0,1.48-10.23h8.48A21.45,21.45,0,0,1,165.92,150.61Zm3.21-12.54h-8.49a41.65,41.65,0,0,0-1.46-10.23h6.74A21.41,21.41,0,0,1,169.13,138.07ZM162.84,124c.5.5,1,1,1.43,1.57h-5.85a27.51,27.51,0,0,0-1.38-3.2,19.47,19.47,0,0,0-2.25-3.46A21.82,21.82,0,0,1,162.84,124Zm-14.13-6.3c.37,0,.72,0,1.08.08a7.85,7.85,0,0,1,1.69,1.06,16.56,16.56,0,0,1,4.47,6.73h-7.24v-7.87Zm0,10.19h8a38.43,38.43,0,0,1,1.59,10.23h-9.63V127.84Zm0,12.54h9.62a39.26,39.26,0,0,1-1.58,10.23h-8V140.38Zm0,12.54h7.23a22.25,22.25,0,0,1-1,2.14,14.44,14.44,0,0,1-3.5,4.6,8.26,8.26,0,0,1-1.69,1.06l-1.08.08Zm-16.43,1.58a19.41,19.41,0,0,1-1.43-1.58h5.84a26.79,26.79,0,0,0,1.38,3.2,19.56,19.56,0,0,0,2.25,3.47A21.7,21.7,0,0,1,132.28,154.5Zm14.12,6.3-1.08-.08a8,8,0,0,1-1.69-1.06,16.89,16.89,0,0,1-4.48-6.74h7.25Zm0-10.19h-8.05a38.91,38.91,0,0,1-1.58-10.23h9.63Zm0-12.54h-9.62a38.44,38.44,0,0,1,1.58-10.23h8v10.23Zm-2.77-19.28a7.61,7.61,0,0,1,1.69-1.06c.36,0,.72-.06,1.08-.08v7.87h-7.23a19.86,19.86,0,0,1,1-2.13A14.33,14.33,0,0,1,143.63,118.79ZM132.28,124a21.57,21.57,0,0,1,8-5.09,22.78,22.78,0,0,0-3.63,6.66h-5.84A21.1,21.1,0,0,1,132.28,124Zm-3.09,3.89h6.75a41.63,41.63,0,0,0-1.48,10.23H126A21.41,21.41,0,0,1,129.19,127.84Zm5.28,12.54a41.23,41.23,0,0,0,1.47,10.23h-6.75A21.45,21.45,0,0,1,126,140.38Z"/></svg>