<svg id="_2" data-name="2" xmlns="http://www.w3.org/2000/svg" viewBox="0 0 300 300"><defs><style>.cls-1{fill:#2fcdb4;}.cls-2{fill:#4b4b4b;}</style></defs><title>アートボード 1</title><circle class="cls-1" cx="150" cy="150" r="150"/><path class="cls-2" d="M99,108.25c10.38,0,12.45-8.07,12.45-12.47V91.53c0-4.4-2.08-12.47-12.45-12.47S86.52,87.13,86.52,91.53v4.25C86.52,100.18,88.6,108.25,99,108.25Z"/><path class="cls-2" d="M147.66,128.91l-17.41,8.53-9.55-15.56c-2.8-4.57-6.41-8.13-11.55-8.13h-19C81.79,113.75,75,121,75,129.83v46.23H85.26V225h9.92l6.14-44.59L107.46,225h9.92V142.64l8.4,9.7,26.56-16.4Z"/><path class="cls-2" d="M225,89.06V82H180.47V75h-9.38v7H126.56v7h4.69v41l.77,1.25,3.92-1.92V89.06h79.68v70.32H135.94v-7.8l-4.69,2.9v4.9h-4.69v7h46.95v18.48l-16.07,30.67a4.62,4.62,0,1,0,4.27,1.95L173.51,195v23h4.69V195.55l11.57,22.08a4.64,4.64,0,1,0,4.2-2.08l-15.77-30.1v-19H225v-7h-4.69V89.06Z"/></svg>