<svg id="_2" data-name="2" xmlns="http://www.w3.org/2000/svg" viewBox="0 0 300 300"><defs><style>.cls-1{fill:#2fcdb4;}.cls-2{fill:#4b4b4b;}</style></defs><title>アートボード 1</title><circle class="cls-1" cx="150" cy="150" r="150"/><path class="cls-2" d="M107.64,175.07a9.05,9.05,0,0,1-.12-.91V171.5a11.11,11.11,0,0,1,.62-3.71,71,71,0,0,0,9.79-19.36c-3.44-7.26-6.57-16.3-6.57-25.26a54.84,54.84,0,0,1,.37-6.08,23.56,23.56,0,0,0-17.24-7.36c-13.83,0-25,11.28-25,28.81,0,14,11.42,29.25,11.42,29.25a11.63,11.63,0,0,1,.61,3.71v2.66a8.5,8.5,0,0,1-5,7.74l-18.12,7.41a14.26,14.26,0,0,0-8.05,10.36l-.31,4a7.47,7.47,0,0,0,7.44,8H87.08l1.22-15.61.08-.42A25.55,25.55,0,0,1,102.82,177Z"/><path class="cls-2" d="M249.67,199.67a14.22,14.22,0,0,0-8-10.36L223.5,181.9a8.49,8.49,0,0,1-5-7.74V171.5a11.11,11.11,0,0,1,.62-3.71s11.4-15.23,11.4-29.25c0-17.53-11.21-28.81-25.06-28.81a23.56,23.56,0,0,0-17.24,7.37,54.66,54.66,0,0,1,.37,6.07c0,9-3.12,18-6.55,25.26a70.83,70.83,0,0,0,9.79,19.36,11.37,11.37,0,0,1,.62,3.71v2.66a7.15,7.15,0,0,1-.14.91l4.5,1.83a25.71,25.71,0,0,1,14.78,18.75l.07.43,1.21,15.61h29.63a7.47,7.47,0,0,0,7.44-8Z"/><path class="cls-2" d="M193.7,184.61l-21.94-9a10.32,10.32,0,0,1-6-9.37v-3.23a13.69,13.69,0,0,1,.75-4.49s13.8-18.41,13.8-35.39c0-21.22-13.57-34.86-30.31-34.86S119.69,102,119.69,123.17c0,17,13.8,35.39,13.8,35.39a13.69,13.69,0,0,1,.75,4.49v3.23a10.33,10.33,0,0,1-6,9.37l-21.93,9a17.17,17.17,0,0,0-9.73,12.55l-1.13,14.53H204.56l-1.12-14.53A17.23,17.23,0,0,0,193.7,184.61Z"/></svg>